<?xml version="1.0" standalone="no"?>
<!DOCTYPE svg PUBLIC "-//W3C//DTD SVG 20010904//EN"
 "http://www.w3.org/TR/2001/REC-SVG-20010904/DTD/svg10.dtd">
<svg version="1.0" xmlns="http://www.w3.org/2000/svg"
 width="1064.000000pt" height="1064.000000pt" viewBox="0 0 1064.000000 1064.000000"
 preserveAspectRatio="xMidYMid meet">
<metadata>
Created by potrace 1.11, written by Peter Selinger 2001-2013
</metadata>
<g transform="translate(0.000000,1064.000000) scale(0.100000,-0.100000)"
fill="#000000" stroke="none">
<path d="M7263 10609 c-24 -10 -43 -15 -43 -12 0 4 -5 2 -12 -5 -7 -7 -20 -12
-30 -12 -10 0 -18 -5 -18 -12 0 -6 -3 -9 -6 -6 -13 13 -287 -136 -342 -186
-13 -11 -27 -20 -30 -20 -25 5 -296 -239 -418 -376 -101 -114 -243 -313 -334
-470 -25 -41 -47 -77 -51 -80 -3 -3 -10 -16 -14 -30 -4 -14 -12 -30 -17 -36
-9 -13 -91 -176 -128 -259 -89 -196 -198 -492 -265 -715 -45 -152 -42 -144
-43 -150 0 -3 -5 -17 -11 -33 -6 -15 -13 -40 -16 -55 -8 -38 -13 -57 -15 -57
-1 0 -3 -7 -5 -15 -2 -8 -11 -46 -20 -85 -9 -38 -18 -80 -20 -92 -2 -12 -6
-27 -10 -32 -6 -11 -12 -36 -20 -86 -5 -34 -12 -68 -19 -93 -3 -9 -7 -34 -11
-56 -3 -21 -7 -41 -10 -45 -2 -4 -6 -21 -9 -37 -12 -60 -26 -140 -31 -174 -3
-19 -10 -57 -15 -85 -5 -27 -12 -63 -14 -80 -9 -53 -16 -99 -21 -135 -3 -19
-8 -55 -12 -80 -4 -25 -7 -53 -7 -62 0 -10 -3 -18 -6 -18 -3 0 -6 -15 -7 -33
-2 -43 -18 -186 -28 -242 -2 -16 -7 -64 -10 -105 -3 -41 -7 -86 -10 -100 -3
-13 -8 -61 -11 -105 -8 -95 -12 -130 -13 -130 -1 0 -4 -31 -6 -70 -3 -38 -7
-97 -10 -130 -3 -33 -7 -103 -10 -155 -4 -52 -8 -129 -11 -170 -24 -396 -32
-1037 -19 -1555 4 -159 8 -318 8 -353 1 -34 6 -62 11 -62 4 0 3 -6 -3 -13 -6
-8 -8 -16 -5 -20 3 -3 7 -50 10 -104 7 -171 24 -416 30 -422 1 -2 3 104 3 235
1 267 9 734 16 894 2 58 7 166 10 240 7 143 11 220 20 365 3 50 8 122 10 160
2 39 7 102 10 140 3 39 8 95 10 125 2 30 7 80 10 110 3 30 8 80 10 110 2 30 4
55 5 55 1 0 3 25 6 55 4 53 11 115 14 115 0 0 3 23 5 50 3 45 40 343 50 405 2
14 11 75 20 135 9 61 18 117 20 125 4 16 15 83 21 135 2 17 6 41 9 55 3 14 9
50 15 80 6 30 12 66 15 80 3 14 8 41 11 60 3 19 7 43 10 52 3 10 7 30 10 45 2
16 7 39 10 53 3 14 7 32 9 40 24 112 48 215 60 255 8 28 16 61 19 75 3 14 9
40 15 58 5 17 7 32 4 32 -3 0 0 7 7 15 7 9 10 18 7 21 -3 3 1 21 9 40 8 19 14
36 14 39 0 3 3 18 6 35 7 34 22 38 50 12 10 -9 44 -35 74 -57 30 -22 57 -43
58 -47 2 -5 8 -8 13 -8 5 0 37 -17 71 -38 83 -51 205 -109 358 -172 52 -21
277 -97 310 -104 8 -2 23 -7 33 -11 16 -7 15 -10 -13 -23 -87 -42 -156 -151
-178 -282 -6 -39 -8 -325 -3 -445 3 -62 -6 -155 -18 -205 -6 -25 -13 -53 -16
-63 -10 -43 -74 -145 -125 -198 -67 -71 -338 -354 -435 -454 -247 -255 -420
-438 -423 -444 -1 -4 15 -8 37 -9 71 -5 156 -38 266 -105 29 -18 165 -153 165
-165 0 -5 7 -16 17 -23 21 -18 91 -128 141 -222 51 -95 123 -257 115 -257 -3
0 1 -8 10 -17 8 -10 16 -22 16 -28 1 -13 22 -77 30 -90 3 -5 7 -19 8 -29 2
-11 8 -25 13 -31 5 -7 7 -15 3 -18 -3 -4 -2 -7 3 -7 5 0 10 -9 11 -19 1 -10
16 -61 33 -112 18 -52 33 -101 35 -109 2 -8 11 -42 20 -75 10 -33 18 -62 18
-65 0 -3 4 -16 9 -30 6 -14 11 -34 13 -45 2 -11 15 -63 30 -115 14 -52 27
-106 30 -120 2 -14 11 -50 19 -82 8 -31 17 -67 20 -80 2 -12 13 -59 25 -103
11 -44 23 -95 26 -114 3 -19 8 -37 10 -41 4 -6 10 -32 20 -87 3 -16 8 -39 12
-53 3 -14 7 -27 8 -30 0 -3 5 -23 10 -45 4 -22 9 -44 11 -50 1 -5 5 -26 9 -45
3 -19 10 -52 14 -72 9 -38 9 -38 -58 -90 -36 -29 -73 -59 -83 -67 -9 -9 -28
-25 -42 -36 -15 -11 -32 -24 -39 -30 -7 -5 -35 -28 -62 -50 -28 -22 -51 -43
-53 -47 -2 -5 -8 -8 -13 -8 -5 0 -17 -8 -27 -18 -19 -18 -67 -57 -115 -94 -16
-13 -91 -72 -166 -133 -177 -142 -255 -204 -411 -323 -30 -23 -173 -134 -205
-160 -5 -4 -55 -42 -110 -82 -55 -41 -104 -79 -110 -83 -5 -4 -50 -37 -100
-73 -49 -35 -98 -71 -108 -79 -9 -8 -19 -15 -22 -15 -3 0 -31 -19 -62 -43 -32
-24 -92 -66 -133 -93 -41 -27 -79 -53 -85 -57 -5 -5 -48 -33 -95 -63 -47 -29
-92 -58 -100 -64 -100 -66 -355 -218 -465 -275 -49 -26 -122 -65 -161 -86 -40
-21 -75 -35 -78 -32 -3 4 -6 2 -6 -4 0 -10 -36 -26 -52 -24 -5 1 -8 -4 -8 -11
0 -6 -3 -9 -6 -5 -4 3 -25 -4 -48 -16 -22 -13 -72 -36 -111 -51 -38 -16 -83
-34 -100 -42 -52 -22 -173 -65 -178 -62 -1 1 -12 -4 -25 -11 -13 -7 -33 -14
-44 -16 -12 -3 -49 -13 -82 -24 -102 -32 -169 -50 -207 -55 -20 -3 -42 -8 -50
-10 -8 -3 -30 -7 -49 -10 -19 -3 -44 -7 -55 -10 -141 -29 -547 -29 -647 0 -9
3 -25 6 -35 8 -64 13 -202 56 -258 81 -44 20 -89 37 -94 35 -2 -1 -7 2 -10 7
-3 5 -31 22 -61 37 -181 92 -414 285 -550 455 -19 24 -40 48 -45 55 -6 6 -26
34 -45 61 -18 28 -36 52 -39 55 -7 6 -20 28 -67 110 -20 36 -44 73 -52 83 -8
9 -12 17 -8 17 3 0 -8 28 -25 62 -45 89 -99 238 -124 343 -1 6 -5 17 -8 25 -6
16 -13 55 -33 180 -8 57 -9 349 -1 414 12 90 24 161 27 161 1 0 4 11 6 24 24
129 130 419 184 501 5 8 30 50 54 92 94 161 238 329 339 395 151 99 367 103
552 11 134 -67 297 -213 455 -408 47 -58 91 -111 98 -118 6 -7 12 -17 12 -21
0 -4 8 -16 18 -27 10 -10 31 -37 47 -59 17 -22 32 -42 36 -45 3 -3 32 -41 66
-85 33 -44 69 -90 79 -102 40 -45 54 -63 54 -67 0 -3 18 -24 39 -48 22 -24 48
-52 58 -64 55 -64 153 -161 158 -156 3 3 5 0 5 -6 0 -13 144 -132 159 -132 6
0 11 -4 11 -10 0 -10 27 -26 164 -97 94 -49 229 -94 286 -97 22 0 40 -4 40 -7
0 -18 313 -14 410 6 14 2 39 7 55 11 58 12 205 55 232 69 44 22 87 38 96 37 4
-1 7 2 7 8 0 5 6 10 13 10 7 0 24 10 37 22 14 13 26 21 28 19 4 -4 16 3 92 60
86 63 194 170 270 268 14 17 30 37 35 44 15 18 83 123 104 160 10 18 32 56 49
84 17 29 28 53 24 53 -4 0 -2 4 4 8 12 8 134 255 134 272 0 5 4 10 8 10 4 0
14 17 22 38 8 20 17 42 19 47 2 6 -8 -3 -23 -18 -14 -15 -26 -33 -26 -39 0 -6
-3 -9 -6 -5 -3 3 -21 -9 -39 -26 -54 -53 -97 -88 -155 -126 -30 -20 -57 -39
-60 -42 -12 -15 -161 -88 -228 -112 -74 -27 -86 -30 -182 -48 -99 -17 -290 -9
-370 16 -10 3 -27 8 -37 10 -53 12 -203 70 -213 84 -3 3 -25 16 -50 29 -81 40
-222 154 -340 273 -127 129 -145 149 -307 353 -62 78 -116 146 -121 151 -4 6
-41 53 -82 105 -41 52 -77 97 -80 100 -3 3 -32 36 -65 75 -192 222 -367 354
-520 391 -39 10 -67 15 -115 20 -64 6 -64 6 -110 -1 -19 -3 -48 -7 -65 -10
-16 -2 -31 -5 -32 -6 -2 -1 -7 -2 -12 -3 -5 0 -13 -4 -17 -9 -4 -4 -15 -7 -24
-7 -22 0 -133 -49 -141 -62 -3 -5 -10 -10 -15 -10 -16 -1 -54 -21 -54 -29 0
-4 -8 -10 -18 -13 -10 -4 -27 -14 -38 -24 -10 -9 -35 -29 -54 -44 -68 -51
-206 -193 -275 -282 -16 -21 -42 -52 -57 -69 -16 -16 -28 -33 -28 -36 0 -3
-14 -22 -30 -41 -16 -19 -30 -38 -30 -42 0 -4 -6 -13 -13 -20 -15 -15 -62 -81
-142 -198 -32 -47 -62 -86 -67 -88 -4 -2 -8 -8 -8 -14 0 -6 -13 -27 -30 -48
-16 -21 -30 -40 -30 -44 0 -5 -59 -95 -70 -106 -25 -25 -180 -346 -180 -373 0
-7 -4 -17 -9 -22 -4 -6 -13 -28 -19 -50 -6 -22 -19 -71 -30 -110 -11 -38 -23
-86 -26 -105 -3 -19 -9 -46 -12 -60 -3 -14 -7 -41 -9 -60 -2 -19 -4 -35 -5
-35 -6 0 -12 -115 -12 -240 -1 -137 2 -172 17 -245 3 -14 7 -45 10 -69 3 -24
7 -47 10 -50 2 -4 6 -19 9 -34 4 -15 9 -39 12 -54 7 -36 61 -197 81 -243 107
-243 184 -369 346 -565 86 -105 284 -295 307 -295 5 0 10 -4 12 -9 2 -5 46
-38 98 -74 133 -89 370 -205 428 -210 12 -1 22 -4 22 -8 0 -7 120 -35 133 -31
4 1 7 -2 7 -6 0 -5 6 -9 13 -9 21 -1 101 -12 127 -18 14 -4 89 -8 166 -9 78
-2 146 -6 152 -10 6 -3 13 -3 16 2 3 4 26 10 53 11 60 4 108 9 108 11 0 1 20
3 44 6 25 2 56 7 70 10 14 3 40 7 56 9 17 2 41 7 55 10 14 3 36 8 48 11 49 10
131 33 237 68 61 20 115 36 120 36 6 0 28 9 50 20 22 11 48 19 57 20 9 0 19 4
22 9 3 5 18 12 33 16 16 3 42 13 58 20 17 7 53 23 80 36 28 12 52 23 55 24 34
12 228 107 310 152 86 47 125 67 130 68 3 1 25 13 50 28 25 16 104 63 175 105
207 124 510 323 673 444 50 37 97 68 102 68 6 0 10 4 10 8 0 4 12 15 28 24 15
9 37 25 48 35 12 10 65 49 118 88 53 38 96 73 96 78 0 4 4 6 9 2 6 -3 13 1 18
8 4 7 24 24 43 37 19 13 49 37 65 52 17 15 33 28 36 28 3 0 17 9 30 20 13 11
29 23 34 27 6 5 24 19 41 33 17 14 45 36 64 50 60 46 225 174 230 180 3 3 25
21 50 40 25 19 50 39 56 45 16 14 41 34 94 75 25 19 47 37 50 40 3 3 28 23 55
44 28 22 58 48 68 58 10 10 21 18 25 18 4 0 27 18 51 40 25 22 47 40 50 40 3
0 22 15 42 33 20 17 48 41 64 52 15 11 34 27 43 35 25 24 75 60 84 60 4 0 8
-8 8 -19 0 -10 9 -56 21 -102 12 -46 23 -93 25 -104 2 -11 6 -31 10 -45 3 -14
7 -35 9 -47 2 -11 6 -30 9 -41 4 -11 8 -29 10 -39 6 -28 123 -481 141 -543 9
-30 18 -62 20 -70 12 -46 77 -258 85 -275 5 -11 20 -51 33 -90 70 -199 169
-418 236 -525 19 -30 34 -56 33 -58 -3 -3 13 -26 58 -86 14 -19 34 -47 45 -62
27 -39 131 -143 180 -181 76 -58 187 -111 272 -128 15 -3 65 -8 110 -10 89 -5
198 17 270 53 21 11 40 19 43 19 9 -1 137 87 190 133 106 89 189 179 292 315
67 89 218 318 218 331 0 3 5 10 10 17 13 15 70 130 67 134 -2 1 -33 -22 -71
-52 -111 -89 -239 -146 -360 -161 -22 -3 -47 -7 -53 -9 -7 -3 -13 -1 -13 3 0
4 -17 8 -37 7 -47 -1 -133 24 -191 56 -73 40 -206 191 -271 309 -27 49 -111
221 -111 227 0 4 -8 25 -19 47 -36 80 -153 416 -165 476 -3 14 -10 41 -16 60
-16 50 -50 169 -60 210 -5 19 -18 73 -30 120 -12 47 -23 92 -25 100 -2 8 -15
61 -30 118 -14 56 -28 112 -31 125 -6 35 -11 57 -33 146 -11 46 -18 88 -15 93
3 4 1 8 -4 8 -5 0 -9 6 -9 13 0 6 -8 45 -17 86 -20 86 -20 84 72 147 31 21 66
47 76 56 11 10 23 18 27 18 4 0 14 6 21 13 23 23 334 227 345 227 6 0 13 4 15
8 2 4 39 29 83 55 44 26 87 52 95 57 60 37 389 200 405 200 1 0 20 8 41 17 22
9 41 17 44 18 3 1 19 5 35 10 17 4 35 10 40 14 6 3 15 6 20 8 6 1 21 4 35 7
14 3 36 10 50 15 135 52 449 59 624 14 91 -23 93 -25 49 -59 -56 -42 -79 -71
-115 -143 -30 -59 -32 -73 -32 -155 0 -118 26 -185 100 -265 53 -58 130 -102
199 -115 34 -7 122 -8 145 -3 97 24 139 46 199 105 108 106 139 234 97 407
-10 41 -53 110 -95 152 -49 49 -186 127 -241 137 -14 2 -25 5 -25 6 0 1 -13 4
-30 6 -16 3 -44 9 -61 15 -18 5 -36 9 -40 8 -5 -1 -11 0 -14 1 -3 1 -16 3 -30
5 -14 2 -52 6 -85 10 -83 10 -485 6 -485 -5 0 -3 -12 -6 -27 -6 -29 -2 -71 -9
-110 -18 -53 -14 -69 -17 -83 -21 -8 -2 -16 -4 -17 -5 -3 -3 -1 -2 -66 -20
-26 -7 -50 -16 -53 -21 -3 -5 -11 -9 -18 -9 -8 0 -31 -8 -52 -17 -22 -9 -45
-18 -52 -19 -24 -4 -347 -166 -350 -175 -2 -5 -9 -9 -16 -9 -8 0 -25 -9 -39
-20 -15 -12 -29 -21 -32 -20 -3 0 -42 -22 -88 -50 -45 -28 -91 -57 -102 -63
-20 -12 -282 -186 -300 -199 -5 -4 -25 -19 -42 -34 -18 -14 -33 -23 -33 -19 0
3 -12 -6 -27 -20 -15 -14 -31 -25 -35 -25 -5 0 -17 -9 -28 -20 -11 -11 -24
-20 -29 -20 -4 0 -15 35 -24 78 -9 42 -30 138 -47 212 -17 74 -33 146 -36 160
-3 14 -10 43 -15 65 -6 22 -12 49 -13 60 -2 11 -6 27 -9 35 -3 8 -10 38 -16
65 -34 150 -57 246 -76 310 -9 33 -19 69 -21 80 -2 11 -12 51 -23 90 -11 38
-17 73 -15 77 3 4 1 8 -4 8 -5 0 -12 19 -16 42 -4 22 -10 46 -14 52 -3 6 -8
20 -9 32 -4 26 -92 295 -128 389 -14 39 -28 75 -29 80 -9 34 -134 293 -157
326 -10 14 -16 29 -12 33 3 3 1 6 -5 6 -7 0 -12 7 -12 15 0 8 -5 15 -11 15 -5
0 -8 4 -5 8 3 5 -4 15 -15 22 -10 8 -19 18 -19 22 0 12 -29 46 -91 110 -55 56
-179 134 -192 121 -4 -3 -7 -2 -7 3 0 5 -8 10 -17 11 -10 1 -33 2 -50 4 -39 2
-38 5 56 94 35 33 94 89 131 125 37 36 109 103 160 150 331 302 421 422 465
618 24 108 24 112 40 537 6 179 11 201 76 335 40 81 91 159 154 235 46 55 191
205 199 205 3 0 20 16 39 35 19 19 37 35 42 35 10 0 74 57 70 62 -4 4 -12 39
-14 61 -1 4 -16 5 -33 1 -18 -3 -42 -7 -54 -8 -11 -2 -25 -5 -30 -8 -27 -17
-278 -26 -384 -14 -124 14 -179 25 -249 45 -19 6 -38 8 -42 5 -5 -3 -9 0 -9 6
0 6 -4 9 -8 6 -5 -3 -21 2 -36 10 -16 7 -39 14 -52 14 -13 0 -24 3 -24 8 0 4
-19 13 -42 20 -61 19 -238 104 -327 158 -42 25 -85 51 -96 57 -29 17 -179 120
-185 127 -3 3 -29 23 -57 45 -29 21 -53 43 -53 49 0 5 21 45 48 88 26 44 52
88 58 99 6 11 21 31 33 45 11 13 21 27 21 30 0 6 73 99 94 120 110 108 125
129 131 181 10 104 54 282 95 383 30 76 92 202 108 218 6 7 12 17 12 22 0 5 6
15 13 22 8 7 27 33 42 58 52 82 296 310 332 310 12 0 35 29 53 65 29 60 105
148 175 203 37 30 29 33 -22 11z"/>
<path d="M2989 9445 c-3 -2 -33 -7 -67 -10 -34 -3 -82 -14 -106 -25 -24 -10
-47 -16 -50 -13 -3 4 -6 1 -6 -5 0 -7 -5 -12 -11 -12 -9 0 -140 -84 -173 -111
-141 -116 -223 -185 -275 -234 -285 -265 -572 -554 -686 -690 -22 -26 -47 -55
-55 -64 -21 -23 -92 -114 -110 -141 -8 -12 -19 -28 -25 -34 -22 -25 -75 -107
-75 -115 0 -5 -4 -11 -8 -13 -11 -4 -21 -22 -89 -159 -91 -185 -105 -258 -89
-467 16 -213 82 -395 207 -562 57 -78 189 -215 251 -262 17 -13 38 -30 48 -38
9 -8 24 -19 32 -25 9 -5 57 -38 107 -72 50 -35 95 -63 101 -63 5 0 10 -4 10
-10 0 -5 11 -12 25 -16 14 -3 25 -9 25 -13 0 -4 18 -16 40 -27 22 -10 40 -23
40 -27 0 -5 5 -5 10 -2 6 3 10 1 10 -4 0 -6 4 -11 9 -11 12 0 175 -93 179
-102 2 -4 12 -8 22 -8 10 0 20 -4 22 -8 2 -5 44 -30 93 -57 50 -26 121 -68
158 -92 37 -23 72 -43 77 -43 6 0 10 -4 10 -10 0 -5 7 -10 15 -10 8 0 15 -5
15 -11 0 -5 4 -8 9 -5 5 4 11 2 13 -2 1 -5 37 -33 78 -62 146 -104 277 -255
327 -375 18 -43 35 -108 35 -132 0 -5 4 -16 9 -25 6 -12 6 -18 0 -18 -7 0 -7
-9 -3 -22 14 -39 6 -178 -15 -273 -4 -16 -7 -32 -8 -35 -4 -34 -69 -147 -95
-166 -8 -7 -28 -24 -45 -38 -16 -14 -36 -26 -42 -26 -7 0 -13 -4 -13 -8 0 -4
-28 -16 -62 -27 -107 -32 -326 -26 -455 14 -219 67 -350 230 -358 446 -1 28 3
61 9 75 9 24 98 143 122 165 22 20 48 71 50 95 2 38 -14 84 -37 109 -38 41
-133 19 -187 -44 -35 -40 -89 -186 -76 -206 2 -4 0 -10 -4 -13 -5 -3 -9 -45
-9 -93 -1 -72 4 -105 28 -178 17 -49 33 -92 37 -95 4 -3 13 -18 20 -33 31 -71
160 -193 252 -239 84 -42 167 -71 180 -63 5 3 11 1 15 -4 3 -5 13 -10 23 -10
46 -2 99 -8 107 -12 14 -7 203 -3 240 6 17 3 39 7 50 9 11 1 26 5 33 9 6 5 12
6 12 3 0 -17 274 100 308 132 7 6 35 26 60 44 26 17 62 46 80 64 18 18 36 34
40 36 7 3 84 87 132 143 55 66 122 168 177 271 32 60 58 111 59 114 0 3 6 19
14 35 33 77 72 205 84 277 20 116 8 188 -52 303 -42 79 -183 230 -297 316 -38
29 -71 56 -73 61 -2 4 -9 8 -15 8 -7 1 -28 14 -47 30 -19 17 -40 30 -46 30 -7
0 -14 4 -16 8 -4 12 -215 152 -228 152 -5 0 -10 4 -10 9 0 5 -13 14 -30 21
-16 7 -30 16 -30 20 0 4 -13 13 -30 20 -16 7 -30 16 -30 21 0 5 -5 9 -11 9 -9
0 -274 174 -289 190 -3 3 -45 34 -95 70 -49 35 -97 72 -106 82 -9 10 -19 18
-22 18 -4 0 -19 12 -35 28 -16 15 -44 40 -63 55 -57 47 -129 118 -129 129 0 5
-4 6 -10 3 -5 -3 -10 -2 -10 2 0 5 -20 31 -44 59 -25 27 -52 57 -60 67 -9 9
-16 20 -16 24 0 4 -8 16 -18 27 -52 59 -165 281 -176 346 -2 14 -9 37 -15 52
-22 58 -39 298 -27 380 14 93 69 201 136 269 46 46 141 106 185 116 5 1 30 7
54 13 47 12 140 23 181 21 71 -1 225 -16 225 -21 0 -1 21 -6 63 -13 31 -5 127
-39 136 -48 6 -5 18 -9 28 -9 10 0 18 -4 18 -10 0 -5 7 -10 15 -10 8 0 37 -13
65 -30 28 -16 53 -30 56 -30 8 0 69 -44 72 -52 2 -5 8 -8 13 -8 8 0 35 -20 65
-48 8 -7 14 -11 14 -8 0 17 258 -255 312 -329 4 -5 22 -30 40 -55 18 -25 39
-57 47 -72 8 -16 18 -28 23 -28 4 0 8 -4 8 -9 0 -6 13 -29 29 -53 16 -24 43
-70 61 -103 17 -33 35 -67 40 -75 21 -38 111 -231 129 -280 12 -30 26 -64 31
-75 12 -25 80 -214 85 -236 2 -9 10 -37 19 -63 26 -75 80 -285 102 -391 2 -11
6 -30 8 -43 3 -13 7 -31 10 -40 3 -9 7 -37 10 -62 4 -25 8 -56 11 -70 7 -39
16 -100 21 -150 10 -97 14 -137 19 -190 6 -68 6 -419 0 -480 -13 -142 -15
-167 -20 -189 -2 -13 -7 -49 -11 -80 -3 -31 -8 -59 -10 -62 -1 -3 -6 -25 -9
-50 -7 -51 -13 -84 -15 -84 -1 0 -3 -9 -5 -19 -2 -11 -7 -31 -11 -45 -4 -14
-7 -29 -6 -33 2 -8 -75 -294 -90 -338 -15 -42 -60 -177 -63 -190 -2 -8 -4 -16
-5 -17 -2 -2 -3 -6 -5 -10 -3 -13 -16 -47 -27 -73 -6 -14 -12 -30 -14 -36 -6
-31 -178 -414 -185 -414 -5 0 -8 -3 -7 -7 4 -11 -117 -248 -156 -307 l-18 -29
22 16 c34 24 201 188 276 273 38 43 76 85 84 94 36 37 210 269 210 279 0 6 5
11 10 11 6 0 10 6 10 14 0 8 4 16 9 18 5 2 40 53 77 114 38 61 74 119 81 130
33 52 187 352 203 396 7 18 12 36 11 41 0 4 4 7 9 7 6 0 10 5 10 11 0 6 20 61
44 122 24 62 56 150 71 197 14 47 29 92 32 100 3 8 7 20 8 25 1 6 3 12 4 15 2
3 5 18 7 35 3 16 10 35 16 42 6 7 8 13 5 13 -3 0 0 21 8 48 7 26 16 61 19 77
3 17 17 84 30 150 13 66 26 140 30 165 3 25 8 56 10 70 3 14 8 52 11 85 2 33
7 76 10 95 3 19 7 87 10 150 3 63 6 127 8 142 2 14 1 32 -4 39 -4 7 -3 21 2
31 7 13 6 18 -2 18 -8 0 -8 4 -2 13 5 6 8 35 6 62 -2 28 -3 57 -3 65 0 8 0 26
0 40 -1 14 -2 67 -3 117 -1 51 -4 93 -7 93 -3 0 -5 29 -4 65 0 36 -2 65 -5 65
-3 0 -7 19 -7 43 -3 81 -13 168 -34 282 -5 28 -11 66 -14 85 -18 123 -99 437
-127 492 -5 10 -9 27 -9 38 0 11 -5 20 -10 20 -6 0 -9 3 -8 8 3 6 -8 39 -32
97 -20 49 -133 281 -140 285 -3 3 -9 13 -13 22 -6 18 -97 159 -107 168 -4 3
-20 25 -37 50 -17 25 -54 69 -82 99 -28 30 -59 64 -69 75 -10 12 -30 30 -43
42 -13 12 -31 30 -40 40 -19 22 -57 54 -65 54 -2 0 -17 11 -32 25 -39 37 -175
126 -264 173 -93 49 -315 135 -328 127 -6 -4 -10 -1 -10 6 0 7 -3 10 -6 6 -3
-3 -18 -1 -33 4 -45 18 -164 39 -245 44 -30 1 -59 5 -64 9 -5 3 -11 4 -13 1z"/>
</g>
</svg>
